<?xml version="1.0" standalone="no"?>
<!DOCTYPE svg PUBLIC "-//W3C//DTD SVG 20010904//EN"
 "http://www.w3.org/TR/2001/REC-SVG-20010904/DTD/svg10.dtd">
<svg version="1.0" xmlns="http://www.w3.org/2000/svg"
 width="547.000000pt" height="547.000000pt" viewBox="0 0 547.000000 547.000000"
 preserveAspectRatio="xMidYMid meet">
<metadata>
Created by potrace 1.11, written by Peter Selinger 2001-2013
</metadata>
<g transform="translate(0.000000,547.000000) scale(0.100000,-0.100000)"
fill="#000000" stroke="none">
<path d="M6 2748 c1 -1107 2 -2015 3 -2018 0 -3 173 -5 384 -5 l382 0 0 1318
c0 724 1 1317 3 1317 2 0 140 -210 257 -390 46 -71 180 -275 311 -475 32 -49
63 -98 69 -107 9 -16 72 -114 245 -378 38 -58 101 -154 140 -215 39 -60 102
-156 138 -212 37 -56 129 -198 205 -315 76 -117 187 -287 246 -378 l107 -165
597 0 597 0 0 907 c0 719 3 908 13 909 6 0 285 0 620 1 l607 0 0 369 0 369
-620 0 -620 0 0 365 0 365 23 1 c12 0 412 1 890 1 l867 1 0 373 0 373 -1500 1
-1500 0 -1 -57 c0 -32 0 -627 0 -1321 0 -695 -2 -1262 -4 -1260 -10 10 -135
199 -135 204 0 3 -5 10 -11 17 -5 7 -50 73 -98 147 -87 135 -592 912 -706
1087 -33 51 -94 146 -136 210 -42 65 -116 179 -165 253 -48 74 -128 198 -179
275 -50 77 -135 209 -190 293 l-99 152 -370 0 -371 0 1 -2012z"/>
</g>
</svg>
